<svg class="icon" viewBox="0 0 1024 1024" xmlns="http://www.w3.org/2000/svg" width="64" height="64"><defs><style/></defs><path d="M933.214 895.51H94.302c-14.482 0-26.216-11.743-26.216-26.216 0-14.474 11.734-26.217 26.216-26.217h838.912c14.482 0 26.216 11.743 26.216 26.216s-11.734 26.217-26.216 26.217zM92.288 502.27c-8.04 0-15.984-3.688-21.121-10.668-8.594-11.657-6.102-28.059 5.555-36.66l332.061-244.683c8.517-6.248 19.978-6.828 29.04-1.365l159.789 95.87L915.635 70.44c11.64-8.568 28.059-6.092 36.653 5.564 8.593 11.658 6.102 28.06-5.556 36.661L614.654 357.348c-8.5 6.263-19.952 6.844-29.04 1.365l-159.789-95.87L107.82 497.166a26.091 26.091 0 0 1-15.532 5.103zM164.212 755.69c-19.304 0-34.955-15.651-34.955-34.955v-122.34c0-19.304 15.651-34.955 34.955-34.955s34.955 15.651 34.955 34.955v122.341c0 19.304-15.652 34.954-34.955 34.954zM338.985 755.69c-19.304 0-34.956-15.651-34.956-34.955v-192.25c0-19.303 15.652-34.955 34.956-34.955 19.303 0 34.955 15.652 34.955 34.955v192.251c0 19.304-15.652 34.954-34.955 34.954zM513.758 755.69c-19.304 0-34.955-15.651-34.955-34.955V476.052c0-19.303 15.651-34.955 34.955-34.955s34.955 15.652 34.955 34.955v244.683c0 19.305-15.651 34.955-34.955 34.955zM688.532 755.69c-19.304 0-34.956-15.651-34.956-34.955V493.53c0-19.303 15.652-34.955 34.956-34.955s34.955 15.652 34.955 34.955v227.206c0 19.304-15.652 34.954-34.955 34.954zM863.305 755.69c-19.304 0-34.955-15.651-34.955-34.955V353.712c0-19.304 15.651-34.955 34.955-34.955s34.955 15.651 34.955 34.955v367.024c0 19.304-15.651 34.954-34.955 34.954z"/></svg>