<svg class="icon" viewBox="0 0 1024 1024" xmlns="http://www.w3.org/2000/svg" width="128" height="128"><defs><style/></defs><path d="M912.498 38.684h-691.77c-40.215 0-72.817 32.602-72.817 72.818V839.68H38.684v72.818c0 40.217 32.602 72.818 72.818 72.818h691.77c40.215 0 72.817-32.601 72.817-72.818V184.32h109.227v-72.818c0-40.216-32.602-72.818-72.818-72.818zM311.75 220.73h182.045c10.053 0 18.204 8.15 18.204 18.204s-8.151 18.205-18.204 18.205H311.75c-10.053 0-18.204-8.151-18.204-18.205s8.15-18.204 18.204-18.204zM111.502 948.907c-20.108 0-36.409-16.301-36.409-36.41V876.09h618.951v36.409a72.455 72.455 0 0 0 9.766 36.409H111.502zM712.25 694.044H311.75c-10.053 0-18.204-8.15-18.204-18.204s8.15-18.204 18.204-18.204H712.25c10.054 0 18.204 8.15 18.204 18.204s-8.15 18.204-18.204 18.204zm-418.702-163.84c0-10.054 8.15-18.204 18.204-18.204h254.862c10.055 0 18.205 8.15 18.205 18.204s-8.15 18.205-18.205 18.205H311.751c-10.053 0-18.204-8.15-18.204-18.205zm418.702-127.43H311.75c-10.053 0-18.204-8.152-18.204-18.205s8.15-18.205 18.204-18.205H712.25c10.054 0 18.204 8.151 18.204 18.205s-8.15 18.204-18.204 18.204zM948.907 147.91h-72.818v-36.409c0-20.108 16.3-36.409 36.409-36.409s36.409 16.301 36.409 36.41v36.408z"/></svg>