<svg class="icon" viewBox="0 0 1024 1024" xmlns="http://www.w3.org/2000/svg" width="64" height="64"><defs><style/></defs><path d="M672.106 606.315c-3.96.94-7.21 1.373-10.26 1.373-8.135 0-15.215-3.143-21.653-9.595-78.391-78.825-157.44-157.686-217.545-217.588-6.278-6.25-12.91-15.447-8.388-31.183 12.456-43.48-8.583-92.133-48.942-113.18-21.733-11.322-43.617-13.966-67.763-8.33l5.874 5.86c17.065 16.992 33.596 33.45 49.96 50.076 11.185 11.365 17.434 24.687 18.07 38.545.658 14.197-4.833 27.78-15.469 38.228-10.15 9.977-22.484 15.252-35.648 15.252-14.508 0-28.661-6.366-40.922-18.403-12.16-11.935-24.197-23.987-36.226-36.038-6.712-6.72-13.424-13.438-20.158-20.143-3.157 13.106-3.2 27.368-.13 42.606 9.147 45.322 49.556 78.218 96.092 78.21a97.945 97.945 0 0 0 26.502-3.67c3.699-1.04 6.842-1.517 9.905-1.517 9.992 0 16.343 5.223 20.252 9.147 66.73 66.961 138.525 138.72 219.481 219.38 3.251 3.215 13.23 13.099 7.377 29.897-3.779 10.787-4.675 22.795-2.825 37.823 6.054 48.819 48.617 87.061 96.916 87.061h.007a89.685 89.685 0 0 0 23.099-2.998l-5.672-5.643c-16.733-16.661-33.17-33.018-49.7-49.296-14.639-14.429-20.643-29.948-18.374-47.425 2.565-19.992 14.378-34.955 33.257-42.108 19.76-7.52 40.091-2.839 56.362 13.092l1.077 1.055c18.864 18.467 38.3 37.483 57.041 56.933 8.179-32.36.491-61.868-22.903-87.805-26.097-28.973-59.527-38.922-98.694-29.616z"/><path d="M512.007 11.025c-277.006 0-501.552 224.546-501.552 501.546 0 276.97 224.546 501.516 501.552 501.516 276.985 0 501.538-224.538 501.538-501.516 0-277-224.553-501.546-501.538-501.546zm306.196 731.597c-2.095 6.076-6.43 18.677-19.717 18.677-7.933 0-13.915-5.253-18.236-9.819-20.642-21.805-42.591-43.27-63.804-64.028l-1.07-1.055c-8.41-8.236-16.407-10.339-25.887-6.734-8.93 3.389-13.648 9.357-14.861 18.8-1.07 8.265 1.921 15.18 10 23.134 16.559 16.314 33.032 32.708 49.801 49.405l35.316 35.106-17.485 9.154c-17.455 9.133-36.183 13.764-55.632 13.764h-.015c-63.666 0-117.652-48.32-125.592-112.414-2.37-19.146-1.048-35.662 4.06-50.46-.093-.093-.187-.194-.296-.303-81.028-80.717-152.845-152.498-219.604-219.488-.216-.217-.397-.39-.549-.528-.325.065-.758.167-1.33.326a126.645 126.645 0 0 1-34.31 4.746h-.015c-60.235 0-112.559-42.642-124.415-101.395-5.802-28.756-2.781-55.228 8.974-78.673l3.316-6.611 7.297-1.185c12.391-1.98 18.467 6.192 20.67 9.017l.5.62c9.334 9.227 18.82 18.72 28.307 28.222 11.972 11.986 23.936 23.972 36.024 35.843 12.239 12.008 25.584 13.467 36.067 3.157 4.761-4.674 7.131-10.31 6.857-16.278-.304-6.625-3.7-13.41-9.805-19.615-16.292-16.56-32.758-32.954-49.751-49.867l-37.967-37.888 20.1-8.237c19.623-8.041 37.974-11.943 56.102-11.943 19.717 0 39.03 4.855 57.402 14.436 53.147 27.708 79.8 89.43 63.37 146.769a13.36 13.36 0 0 0-.317 1.322c.253.303.657.766 1.322 1.43 60.134 59.924 139.219 138.814 217.639 217.668.946.946 1.409 1.192 1.409 1.2.253-.116 1.286-.217 3.345-.709 11.712-2.781 23.265-4.197 34.326-4.197 35.93 0 67.048 14.32 92.502 42.562 32.765 36.327 41.746 79.923 25.952 126.07z"/></svg>