<svg class="icon" viewBox="0 0 1024 1024" xmlns="http://www.w3.org/2000/svg" width="200" height="200"><defs><style/></defs><path d="M28.16 286.403L505.6 101.12l492.8 185.283L532.48 478.72z"/><path d="M512 512c-12.8 0-32 0-44.8-6.4l-416-140.8C19.2 352 0 320 0 288s19.2-64 51.2-76.8L460.8 70.4c32-12.8 64-12.8 96 0l409.6 140.8C1004.8 224 1024 256 1024 288s-19.2 64-51.2 76.8l-416 140.8c-12.8 6.4-32 6.4-44.8 6.4zm0-384c-6.4 0-19.2 0-25.6 6.4L76.8 275.2C64 275.2 64 281.6 64 288s0 12.8 12.8 12.8l409.6 140.8c19.2 6.4 32 6.4 51.2 0l409.6-140.8c12.8 0 12.8-6.4 12.8-12.8s0-12.8-12.8-12.8L537.6 134.4c-6.4-6.4-19.2-6.4-25.6-6.4z"/><path d="M723.2 864H300.8C224 864 160 800 160 723.2V384c0-19.2 12.8-32 32-32s32 12.8 32 32v339.2c0 44.8 32 76.8 76.8 76.8h428.8c38.4 0 76.8-38.4 76.8-76.8V384c0-19.2 12.8-32 32-32s32 12.8 32 32v339.2C864 800 800 864 723.2 864zM960 832c-19.2 0-32-12.8-32-32V416c0-19.2 12.8-32 32-32s32 12.8 32 32v384c0 19.2-12.8 32-32 32zm-51.2 76.8c0 28.278 22.922 51.2 51.2 51.2s51.2-22.922 51.2-51.2-22.922-51.2-51.2-51.2-51.2 22.922-51.2 51.2z"/></svg>