<?xml version="1.0" standalone="no"?><!DOCTYPE svg PUBLIC "-//W3C//DTD SVG 1.1//EN" "http://www.w3.org/Graphics/SVG/1.1/DTD/svg11.dtd"><svg t="1568944520988" class="icon" viewBox="0 0 1024 1024" version="1.1" xmlns="http://www.w3.org/2000/svg" p-id="2162" xmlns:xlink="http://www.w3.org/1999/xlink" width="200" height="200"><defs><style type="text/css"></style></defs><path d="M14.8973037 512h248.55134815v82.85044978h-248.55134815zM304.87387614 263.44865185h248.55134815v82.85044979h-248.55134815zM594.85044978 14.8973037h414.25224652v82.85044979h-414.25224652z" fill="#1296db" p-id="2163"></path><path d="M967.67747201 139.17297778h-331.40179793c-24.85513482 0-41.42522429 16.57008947-41.4252243 41.42522428v207.12612386h-248.55134814c-24.85513482 0-41.42522429 16.57008947-41.4252255 41.4252243v207.12612386h-248.55134815c-24.85513482 0-41.42522429 16.57008947-41.42522429 41.42522428v248.55134815c0 24.85513482 16.57008947 41.42522429 41.42522429 41.4252255h911.35494402c24.85513482 0 41.42522429-16.57008947 41.42522429-41.4252255v-745.65404445c0-24.85513482-16.57008947-41.42522429-41.42522429-41.42522428z m-621.37837037 704.22882016h-248.55134815v-82.85044979h248.55134815v82.85044979z m289.97657244-248.55134816h-248.55134816v-82.85044978h248.55134816v82.85044978z m289.97657243-248.55134814h-248.55134815v-82.85044979h248.55134815v82.85044979z" p-id="2164"></path></svg>