<svg class="icon" viewBox="0 0 1024 1024" xmlns="http://www.w3.org/2000/svg" width="200" height="200"><defs><style/></defs><path d="M455.107 483.562V28.445H0v967.11h170.66V824.89h113.778v170.667H1024V483.562H455.107zm-56.896 227.55H56.884v-56.89h341.327v56.89zm0-170.667H56.884v-56.883h341.327v56.883zm0-170.667H56.884v-56.883h341.327v56.883zm0-170.666H56.884v-56.89h341.327v56.89zm284.456 682.671H511.996V824.89h170.672v56.894h-.001zm0-113.777H511.996v-56.894h170.672v56.894h-.001zm0-113.783H511.996v-56.89h170.672v56.89h-.001zm227.556 227.56H739.556V824.89h170.667v56.894zm0-113.777H739.556v-56.894h170.667v56.894zm0-113.783H739.556v-56.89h170.667v56.89z"/></svg>