<svg class="icon" viewBox="0 0 1024 1024" xmlns="http://www.w3.org/2000/svg" width="300" height="300"><defs><style/></defs><path d="M958.464 0H167.936C131.072 0 102.4 28.672 102.4 65.536V716.8H0v241.664C0 995.328 28.672 1024 65.536 1024h739.328c36.864 0 65.536-28.672 65.536-65.536V307.2H1024V65.536C1024 28.672 995.328 0 958.464 0zM135.168 919.552c-18.432 0-32.768-14.336-32.768-32.768V819.2h462.848v69.632c0 12.288 2.048 22.528 8.192 32.768H135.168zM768 135.168v753.664c0 18.432-14.336 32.768-32.768 32.768h-36.864c-18.432 0-32.768-14.336-32.768-32.768V716.8H204.8V135.168c0-18.432 14.336-32.768 32.768-32.768h538.624c-6.144 10.24-8.192 20.48-8.192 32.768zM921.6 204.8h-51.2v-69.632c0-18.432 8.192-32.768 26.624-32.768 16.384 0 24.576 14.336 24.576 32.768V204.8zM358.4 358.4h256c28.672 0 51.2-22.528 51.2-51.2S643.072 256 614.4 256h-256c-28.672 0-51.2 22.528-51.2 51.2s22.528 51.2 51.2 51.2zm0 204.8h204.8c28.672 0 51.2-22.528 51.2-51.2s-22.528-51.2-51.2-51.2H358.4c-28.672 0-51.2 22.528-51.2 51.2s22.528 51.2 51.2 51.2z"/></svg>