<svg class="icon" viewBox="0 0 1024 1024" xmlns="http://www.w3.org/2000/svg" width="300" height="300"><defs><style/></defs><path d="M308.11 243.156c-22.792 0-41.263-19.117-41.263-42.625V86.744c0-23.506 18.471-42.623 41.263-42.623s41.264 19.117 41.264 42.625v113.785c0 23.508-18.472 42.625-41.264 42.625zm373.798 0c-22.792 0-41.263-19.117-41.263-42.625V86.744c0-23.506 18.471-42.623 41.263-42.623s41.264 19.117 41.264 42.625v113.785c0 23.508-18.472 42.625-41.264 42.625z"/><path d="M889.783 801.576c0 60.723-48.569 110.416-107.923 110.416H242.14c-59.352 0-107.921-49.693-107.921-110.416V470.277c0-60.78 48.57-110.416 107.92-110.416H781.86c59.352 0 107.923 49.635 107.923 110.416v331.3zm-27.01-687.065h-75.005c-10.723 0-19.384 9.27-19.384 20.768v65.944c0 47.817-36.297 86.595-80.968 86.595-44.73 0-80.913-38.78-80.913-86.595v-65.944c0-11.498-8.716-20.768-19.44-20.768H409.985c-10.724 0-19.382 9.27-19.382 20.768v65.944c0 47.817-36.3 86.595-80.97 86.595-44.672 0-80.97-38.78-80.97-86.595v-65.944c0-11.498-8.716-20.768-19.381-20.768h-48.055c-59.41 0-107.979 52.04-107.979 115.577v635.379c0 63.594 48.57 115.576 107.98 115.576h701.545c59.41 0 107.979-51.98 107.979-115.576v-635.38c0-63.535-48.57-115.576-107.98-115.576z"/><path d="M736.279 818.417H278.012c-31.676 0-57.283-28.754-57.283-64.323s25.607-64.322 57.283-64.322H736.28c31.675 0 57.283 28.753 57.283 64.322s-25.608 64.323-57.283 64.323zm0-233.017H278.012c-31.676 0-57.283-28.754-57.283-64.323 0-35.571 25.607-64.322 57.283-64.322H736.28c31.675 0 57.283 28.75 57.283 64.322 0 35.57-25.608 64.323-57.283 64.323z"/></svg>