<svg class="icon" viewBox="0 0 1024 1024" xmlns="http://www.w3.org/2000/svg" width="300" height="300"><defs><style/></defs><path d="M970.84 347.548v168.166l38.316 46.53-74.077 67.065-68.136-67.065 40.873-47.404V375.248C688.947 468.31 629.33 497.822 580.813 520.192c-48.54 22.37-83.45 22.37-131.99 3.583-47.71-18.787-266.578-105.557-380.676-161.918-75.804-37.574-80.916-61.735 1.682-93.935 107.304-42.03 274.202-110.013 367.897-146.691 55.356-23.266 85.153-35.783 136.25-9.83 91.138 39.343 288.707 119.843 392.604 164.582 90.286 41.135 29.818 54.57 4.26 71.565zM591.866 589.966c52.8-22.37 124.343-59.944 202.68-94.809V772.44S694.06 883.37 516.064 883.37c-190.753 0-293.82-110.93-293.82-110.93V513.027c60.49 25.056 127.752 47.404 209.497 76.021 50.266 19.705 114.142 25.953 160.127.918z"/></svg>