<svg class="icon" viewBox="0 0 1024 1024" xmlns="http://www.w3.org/2000/svg" width="200" height="200"><defs><style/></defs><path d="M872.216 585.145c-75.4 31.045-171.229 9.364-210.133-60.445-31.314 52.271-96.372 84.365-160.443 81.38-55.5-2.586-112.374-30.592-145.429-73.367-40.248 66.373-134.1 86.614-208.253 56.345C67.195 556.09 4.019 463.526 36.8 382.306L161.253 73.968H862L983.211 376.9c32.739 81.805-30.35 175.04-110.995 208.245zM834.2 312.994a7.066 7.066 0 0 0-7.062-7.068H209.964a7.065 7.065 0 0 0-7.062 7.068v34.679a7.065 7.065 0 0 0 7.062 7.068H827.14a7.066 7.066 0 0 0 7.062-7.068v-34.679zM138.723 647.779c27.039 0 64.8 25.007 109.3 26 45.755 1.022 86.5-59.44 142.171-59.175 48.144.232 98.873 51.547 149.185 55.359 51.193 3.878 89.815-55.134 136.986-54.255 50.657.945 98.849 57.812 139.419 67.54 29.191 7 54.437-24.985 73.817-36C915.817 632.355 931.3 672.2 931.3 672.2v158.71c0 67.428-54.354 122.09-121.4 122.09H215.033c-67.048 0-121.4-54.66-121.4-122.088V672.2s16.585-24.421 45.09-24.421z"/></svg>