<svg class="icon" viewBox="0 0 1024 1024" xmlns="http://www.w3.org/2000/svg" width="128" height="128"><defs><style/></defs><path d="M307.218 357.94H716.42c28.339 0 51.082-22.924 51.082-51.083 0-28.34-22.924-51.083-51.082-51.083H307.218c-28.34 0-51.083 22.924-51.083 51.083-.18 28.34 22.744 51.083 51.083 51.083zm0 204.691H716.42c28.339 0 51.082-22.924 51.082-51.082 0-28.159-22.924-51.083-51.082-51.083H307.218c-28.34 0-51.083 22.924-51.083 51.083-.18 28.158 22.744 51.082 51.083 51.082zM972.195 0H51.444C23.104 0 .18 22.744.18 51.083v920.751c0 28.34 22.924 51.083 51.083 51.083h920.752c28.339 0 51.082-22.924 51.082-51.083V51.083C1023.277 22.743 1000.534 0 972.195 0zm-51.083 920.752H102.526V102.165h818.586v818.587zM307.218 767.323H716.42c28.339 0 51.082-22.924 51.082-51.083 0-28.339-22.924-51.082-51.082-51.082H307.218c-28.34 0-51.083 22.924-51.083 51.082-.18 28.16 22.744 51.083 51.083 51.083z"/></svg>