<svg class="icon" viewBox="0 0 1024 1024" xmlns="http://www.w3.org/2000/svg" width="128" height="128"><defs><style/></defs><path d="M415.744 377.856h-1.536c-2.56 15.872-5.12 27.648-8.192 36.352L328.192 629.76h174.592l-78.848-215.552c-2.56-7.168-5.12-19.456-8.192-36.352zM896 2.048H386.048c-35.328 0-64 28.672-64 64v64h510.464v701.44H896c35.328 0 64-28.672 64-64V66.048c0-35.328-28.672-64-64-64z"/><path d="M705.024 193.024H131.072c-35.328 0-64 28.672-64 64v701.44c0 35.328 28.672 64 64 64h573.952c35.328 0 64-28.672 64-64v-701.44c-.512-35.328-29.184-64-64-64zM576 830.976L523.264 688.64H306.688l-50.176 142.336h-73.728l197.632-519.68h71.68l198.144 519.68H576z"/></svg>