<svg class="icon" viewBox="0 0 1024 1024" xmlns="http://www.w3.org/2000/svg" width="64" height="64"><defs><style/></defs><path d="M1021.602 765.5c-1.3-16.3-4.3-17.8-20.4-16.5-17.8 1.4-32.9-7.5-39.1-23-6.3-15.9-1.7-32.3 12.2-43.7 9.4-7.7 10.5-13.9 2-22.9-12.8-13.5-26.1-26.6-40-38.9-10.8-9.6-15.8-8.3-25 3.2-11.2 14-29 18.2-45.2 10.7-15.2-7.1-22.3-20.1-21.2-38.5.8-12.6-2.9-17.1-15.5-18-9.8-.8-19.7-1.3-28.9-1.9-9.7 1.1-18.8 1.9-27.7 3.1-12.5 1.7-15.3 5.3-14.2 18.2 1.7 19.5-6.5 34.1-22.6 40.8-15.7 6.5-31.9 1.8-44.3-12.7-7.3-8.6-13.7-9.9-21.7-2.2-13.6 12.7-26.9 25.9-39.2 39.8-10.6 11.9-9.4 15.9 2.8 26.1 11.6 9.7 16.6 22.1 13.4 37-3.3 15.2-13 25-28 28.5-5.5 1.3-11.6.5-17.5.4-7.9-.1-12.9 3.5-14 11.3-2.9 21.5-3 43.1.9 64.6 1.5 8.5 6.1 11.8 14.6 11.2 4.5-.3 9.1-1.3 13.5-.9 15.8 1.6 28.2 12.1 32.5 26.8 4.3 14.7-.8 29.7-13.5 39.9-10.4 8.4-11.6 14.2-2.5 23.9 12.6 13.4 25.6 26.4 39.4 38.5 11.7 10.3 16.2 9.1 26-3.4 13.4-17.2 37.5-19.5 53.9-5.4 11 9.5 14 21.4 12.5 35.3-1.1 10.3 2.7 16.2 11.7 16.3 20.2.4 40.5.5 60.6-.7 13.1-.8 15.7-5.5 14.2-18.7-2.2-19.2 5.9-34.2 22-41.1 16.3-6.9 32.7-2.2 44.8 12.7 7.4 9.1 13.9 10.5 22.2 2.5 13.9-13.2 27.3-26.9 40-41.2 9.2-10.4 7.9-16-3.2-24.4-9.3-7-14.5-16.3-15.2-27.9-1.4-23.6 17.9-41.6 41.8-39.2 12.2 1.2 18.2-2.3 18.5-12.9.6-19 .8-37.9-.6-56.7zm-217.1 124.4c-52.5-.6-94.7-43.3-94-95.3.7-51.3 43-93.5 93.7-93.3 52.3.2 95.5 43.2 94.9 94.7-.5 52.1-43.2 94.4-94.6 93.9zm0 0"/><path d="M627.702 587.5l-58.5-18-61.2-30.6v-69.4s46.2-29.5 52.3-73.1c2.3-.1 4.7-.3 7.6-.7 33.3-4 57.5-85.9 57.5-85.9s1.6-38.3-18.6-38.3c-2.3 0-24.8.3-26.7 1l5.1-67.9.6-51.8s.4-141.1-172.2-142.7c-179.2 1.5-145.6 77.4-145.6 77.4 0 .2.1.3.1.5-22.3 12.8-33.6 32.5-33.6 72.7 0 87.4 11 118.8 11 118.8l-25.2-8s-28.9 2.9-26.4 36.6c2.5 33.8 30.9 83.5 64.2 87.5 2.5.3 4.7.5 6.7.6.1 53.2 46.7 74.5 46.7 74.5l.4 66.3-62.4 32.2-184.4 58.4s-65.5 19.7-65.1 102.3l1.3 101.5h533.2c-1.6-12.1-3.7-24.2-3.7-36.8 0-83.3 38.1-157 96.9-207.1z"/></svg>